<?xml version="1.0" standalone="no"?>
<!DOCTYPE svg PUBLIC "-//W3C//DTD SVG 20010904//EN"
 "http://www.w3.org/TR/2001/REC-SVG-20010904/DTD/svg10.dtd">
<svg version="1.0" xmlns="http://www.w3.org/2000/svg"
 width="700.000000pt" height="700.000000pt" viewBox="0 0 700.000000 700.000000"
 preserveAspectRatio="xMidYMid meet">
<metadata>
Created by potrace 1.14, written by Peter Selinger 2001-2017
</metadata>
<g transform="translate(0.000000,700.000000) scale(0.100000,-0.100000)"
fill="#000000" stroke="none">
<path d="M156 6419 l-26 -31 1 -561 c0 -408 3 -571 12 -597 23 -65 19 -64 642
-124 314 -30 604 -58 646 -62 l76 -7 303 -1361 c238 -1073 308 -1373 330
-1417 30 -58 93 -123 136 -139 16 -6 565 -10 1440 -10 l1414 0 0 -99 c0 -70
-4 -102 -13 -110 -10 -8 -375 -12 -1301 -13 -1131 -3 -1288 -5 -1296 -18 -5
-8 -10 -59 -10 -112 0 -91 2 -99 23 -113 21 -13 180 -15 1425 -13 1132 3 1403
5 1414 16 10 10 14 70 16 237 l3 225 102 0 c77 0 112 5 142 19 48 22 111 88
135 145 10 22 156 534 325 1136 168 602 310 1109 315 1125 10 29 12 30 60 27
46 -4 53 -1 83 30 31 30 35 42 45 124 18 139 16 161 -16 193 -22 22 -40 29
-92 34 -36 4 -560 54 -1165 112 -605 58 -1309 125 -1565 150 -1237 119 -1774
170 -2465 235 -412 39 -765 73 -782 76 l-33 5 0 425 c0 461 -1 467 -55 492
-15 7 -72 12 -135 12 l-108 0 -26 -31z m2030 -1558 c17 -10 38 -34 46 -52 9
-19 82 -445 163 -947 80 -502 158 -985 172 -1073 l26 -160 -20 -27 c-30 -41
-76 -42 -113 -2 -35 37 -24 -12 -160 750 -239 1341 -260 1465 -254 1485 4 11
11 26 16 33 15 18 89 14 124 -7z m723 -30 c40 -29 48 -61 66 -263 8 -92 51
-557 95 -1033 72 -780 78 -869 65 -894 -34 -67 -131 -30 -149 57 -6 26 -59
490 -151 1317 -25 220 -54 481 -65 580 -25 223 -25 211 6 242 21 21 32 25 64
20 22 -3 53 -15 69 -26z m714 -63 c53 -27 50 15 77 -1220 14 -626 16 -886 8
-908 -27 -80 -124 -62 -147 28 -6 20 -26 413 -46 872 -48 1126 -49 1163 -41
1193 12 49 87 67 149 35z m729 -74 c35 -32 37 -57 28 -241 -6 -98 -26 -497
-45 -888 -47 -939 -46 -929 -76 -961 -32 -34 -84 -30 -113 9 -19 26 -21 40
-18 165 6 303 33 1273 42 1512 6 140 10 281 10 313 0 52 3 62 30 89 28 27 36
30 76 25 25 -2 54 -13 66 -23z m719 -73 c16 -16 29 -40 29 -53 0 -13 -54 -448
-120 -968 -87 -688 -125 -954 -138 -980 -34 -69 -115 -74 -142 -9 -13 30 7
230 145 1499 58 525 52 488 82 516 39 36 105 34 144 -5z m709 -90 c14 -10 26
-29 28 -42 1 -13 -35 -202 -82 -419 -46 -217 -135 -638 -197 -935 -111 -530
-114 -541 -145 -572 -31 -32 -74 -43 -100 -25 -40 26 -40 24 106 805 78 413
148 781 155 817 8 36 24 117 35 180 12 63 25 129 31 147 21 67 105 88 169 44z"/>
</g>
</svg>
